<svg width="200" height="84" viewBox="0 0 200 84" fill="none" xmlns="http://www.w3.org/2000/svg">
<path d="M30.0872 74.4661C51.5292 62.3318 77.0124 55.3725 99.9991 55.3725C122.988 55.3725 148.469 62.3318 169.913 74.4661L190.904 31.6583C162.366 15.5785 131.783 7.42542 99.9991 7.42542C68.2165 7.42542 37.6321 15.5792 9.0957 31.66L30.0872 74.4661Z" fill="#DD052E"/>
<path d="M99.9995 55.3724C77.0122 55.3724 51.5297 62.3317 30.0873 74.4661L27.1763 83.9102C27.7061 84.0742 28.2813 84.0119 28.7638 83.7386L33.7215 80.9339C54.0887 69.4071 78.2467 62.7977 99.9995 62.7977C121.753 62.7977 145.91 69.4078 166.278 80.9353L171.237 83.7386C171.719 84.0119 172.291 84.0742 172.823 83.9102L169.913 74.4661C148.47 62.3317 122.988 55.3724 99.9995 55.3724Z" fill="#B60F25"/>
<path d="M148.295 23.4099C148.149 23.5443 148.061 23.8203 148.107 24.0664C148.107 24.0664 151.654 44.2115 151.718 44.5707C151.591 44.9077 148.03 54.3394 148.03 54.3394C147.94 54.5738 147.965 54.7306 148.035 54.8795C148.107 55.0294 148.264 55.1531 148.434 55.2141C151.173 56.1863 154.061 57.275 156.161 58.1249C156.504 58.2631 156.896 58.0991 157.035 57.7537C157.035 57.7537 160.784 48.5347 160.92 48.2035C161.211 47.9819 177.546 35.6376 177.546 35.6376C177.715 35.5098 177.818 35.2737 177.811 35.0325C177.802 34.7984 177.645 34.593 177.435 34.4903C174.838 33.2259 172.077 31.9007 169.499 30.7934C169.255 30.688 168.974 30.7369 168.779 30.9147C168.779 30.9147 160.437 38.6126 158.756 40.162C158.584 37.8805 157.718 26.5699 157.718 26.5699C157.697 26.3 157.518 26.0691 157.265 25.9836C154.892 25.1689 151.868 24.1926 148.966 23.303C148.741 23.2365 148.444 23.2731 148.295 23.4099Z" fill="white"/>
<path d="M110.209 17.1596L107.812 46.1509C107.795 46.3322 107.855 46.51 107.972 46.6479C108.09 46.7843 108.258 46.8677 108.437 46.8808C109.662 46.9594 112.917 47.1972 116.732 47.6818C116.913 47.7052 117.095 47.6542 117.238 47.5401C117.378 47.425 117.469 47.2589 117.486 47.078C117.486 47.078 118.401 37.5325 118.726 34.1334C120.32 37.4112 125.887 48.8728 125.887 48.8728C125.978 49.061 126.153 49.1961 126.358 49.2392C128.591 49.6893 131.336 50.2976 134.091 50.9517C134.266 50.992 134.45 50.9613 134.603 50.8659C134.754 50.7728 134.862 50.6198 134.903 50.444L141.385 21.9211C141.468 21.5582 141.243 21.1974 140.884 21.115C138.178 20.4778 134.838 19.7533 132.17 19.2229C131.808 19.1502 131.456 19.3842 131.381 19.7464C131.381 19.7464 128.966 31.3166 128.31 34.4577C126.944 31.3987 120.863 17.7861 120.863 17.7861C120.766 17.5701 120.564 17.4208 120.328 17.3919C116.244 16.8928 112.095 16.6154 110.922 16.542C110.556 16.5199 110.24 16.796 110.209 17.1596Z" fill="white"/>
<path d="M98.6727 16.2234C98.6727 16.2234 93.7562 16.3144 93.7525 16.3144C87.3738 16.545 80.1544 17.2367 73.4227 18.2592C73.0587 18.3143 72.8073 18.6528 72.8568 19.0164L76.741 47.9704C76.7661 48.1517 76.8622 48.3151 77.0082 48.4229C77.1538 48.5315 77.3378 48.5749 77.5171 48.5443C85.3954 47.266 93.2071 46.5598 100.457 46.5988C100.827 46.5995 101.129 46.3038 101.133 45.9309L101.19 40.5931C101.191 40.4129 101.123 40.2409 100.998 40.1116C100.871 39.9848 100.701 39.9159 100.522 39.9107C96.5436 39.7829 89.3003 40.2447 85.6757 40.6227C85.5616 39.6843 85.1496 36.3227 85.0294 35.3484C88.0874 35.0176 95.5485 34.6209 95.8799 34.6264C96.2109 34.6288 96.546 34.31 96.5385 33.9371L96.4396 29.0205C96.4355 28.8392 96.3616 28.6704 96.2332 28.5459C96.1044 28.4229 95.9276 28.3609 95.7524 28.3578C93.8534 28.3333 87.8717 28.7238 84.2852 29.0815L83.6345 23.7338C87.2138 23.3877 90.9898 23.1269 93.9922 23.0162C93.9678 23.0162 98.7153 22.9328 98.7153 22.9328C99.0831 22.9252 99.3771 22.624 99.3764 22.2549L99.3582 16.8951C99.3571 16.7149 99.284 16.5422 99.1556 16.4154C99.0258 16.2882 98.8523 16.2196 98.6727 16.2234Z" fill="white"/>
<path d="M61.0725 20.6485C57.9187 21.3836 54.665 22.2372 51.4023 23.1871C51.1623 23.2567 50.9813 23.4531 50.9308 23.6992C50.9308 23.6992 48.1754 37.1249 47.7787 39.0566C46.2746 37.7866 35.8318 28.9542 35.8318 28.9542C35.6405 28.7929 35.3764 28.7519 35.1457 28.845C31.7755 30.2177 28.6488 31.58 25.8553 32.899C25.5239 33.0547 25.3779 33.4476 25.5249 33.7816L37.1711 60.2611C37.2432 60.4276 37.3795 60.5568 37.5471 60.622C37.7153 60.6844 37.9028 60.6778 38.0673 60.602C39.9303 59.7483 42.4577 58.6999 45.7918 57.4048C45.9618 57.339 46.1064 57.2097 46.1689 57.0377C46.2307 56.8651 46.2376 56.6704 46.1665 56.5091C46.1665 56.5091 42.5261 47.9341 41.2119 44.8431C43.9708 46.7841 51.7708 52.2786 51.7708 52.2786C51.9483 52.4037 52.1736 52.4344 52.3769 52.3634C52.5809 52.2931 52.7392 52.1266 52.801 51.9202C52.801 51.9202 55.5407 42.7446 56.4994 39.5343C57.3916 42.7532 59.9142 51.852 59.9142 51.852C60.0125 52.2076 60.3813 52.4192 60.7374 52.3227C63.5471 51.5542 66.6195 50.7702 68.7562 50.2673C68.9344 50.2284 69.0858 50.1143 69.1803 49.9592C69.274 49.8034 69.2998 49.617 69.2558 49.4405L61.8758 21.1351C61.7837 20.7815 61.4273 20.5644 61.0725 20.6485Z" fill="white"/>
<path d="M9.09621 31.6599L0.0915162 28.8539C-0.057177 29.3316 -0.0290177 29.8647 0.20793 30.3479L25.9628 82.8697C26.2073 83.3704 26.6465 83.7471 27.1767 83.9105L30.0877 74.4664L9.09621 31.6599Z" fill="#C90C29"/>
<path d="M169.914 74.4659L172.823 83.9103C173.354 83.7452 173.792 83.3699 174.037 82.8692L199.793 30.3474C200.028 29.8642 200.058 29.3307 199.909 28.8534L190.904 31.6577L169.914 74.4659Z" fill="#C90C29"/>
<path d="M99.9996 7.42557C131.784 7.42557 162.367 15.5787 190.904 31.6584L199.905 28.8441C199.756 28.3685 199.434 27.9477 198.971 27.6868L194.525 25.1827C164.871 8.47327 133.067 0 99.9996 0C66.9334 0 35.1316 8.47327 5.47467 25.1844L1.0307 27.6868C0.566417 27.9491 0.243618 28.3702 0.0942383 28.8455L9.09619 31.6598C37.6326 15.579 68.217 7.42557 99.9996 7.42557Z" fill="#E6353F"/>
</svg>
