<svg xmlns="http://www.w3.org/2000/svg" width="431" height="72" viewBox="0 0 431 72">
  <g fill="none" fill-rule="evenodd">
    <path fill="#FFF" fill-rule="nonzero" d="M160.9 16.7C162.1 16.7 162.8 17.3 162.8 18.3L162.8 32.6 165.3 32.6C166.5 32.6 167.5 32 167.8 31L172.8 17.7C173 17.1 173.5 16.6 174.7 16.6L178.9 16.6C180.3 16.6 181 17.7 180.6 18.8L175.4 32.1C174.9 33.5 174 34.5 172.7 35.4 173.9 36.1 174.9 37.3 175.4 38.7L180.8 52.5C181.2 53.8 180.5 54.7 179 54.7L174.9 54.7C173.8 54.7 173.2 54.2 173 53.6L167.9 39.8C167.6 38.9 166.5 38.3 165.4 38.3L162.9 38.3 162.9 53.1C162.9 54.2 162.2 54.7 161 54.7L157 54.7C155.8 54.7 155.1 54.1 155.1 53.1L155.1 18.4C155.1 17.3 155.8 16.8 157 16.8L160.9 16.8 160.9 16.7zM215.1 13.6C216.5 13.6 216.8 14.7 216.5 15.4L214.2 19.6C215.5 21 216.2 22.8 216.2 24.9L216.2 46.8C216.2 51.7 212.5 54.9 206.6 54.9L198.9 54.9C197.6 54.9 196.4 54.7 195.3 54.4L193.7 57.4C193.5 57.8 193 58 192.4 58L190 58C188.7 58 188.3 56.9 188.7 56.2L191.1 51.8C190 50.5 189.4 48.8 189.4 46.8L189.4 24.9C189.4 20 193.2 16.8 198.9 16.8L206.6 16.8C207.8 16.8 208.8 17 209.8 17.2L211.4 14.3C211.6 13.9 212.1 13.7 212.7 13.7L215.1 13.7 215.1 13.6zM197 40.8L197 40.8 206.5 23.1C205.8 22.7 204.8 22.5 203.6 22.5L201.7 22.5C198.7 22.5 197 23.9 197 26.6L197 40.8 197 40.8zM208.4 30.2L208.4 30.2 198.5 48.3C199.2 48.8 200.4 49.1 201.7 49.1L203.6 49.1C206.6 49.1 208.4 47.7 208.4 45.1L208.4 30.2 208.4 30.2zM241.7 16.7C247 16.7 250.8 19.9 250.8 24.5L250.8 26.5C250.8 30.9 248.1 34.1 244.2 35.6 248.1 37.1 250.8 40.4 250.8 44.7L250.8 47.2C250.8 51.8 247.1 55 241.7 55L227.7 55C226.5 55 225.8 54.4 225.8 53.4L225.8 18.4C225.8 17.3 226.5 16.8 227.7 16.8L241.7 16.8 241.7 16.7zM233.5 23.2L233.5 23.2 233.5 32.7 237.3 32.7C240.6 32.7 243 30.8 243 27.9L243 26.2C243 23.9 241.3 22.5 238.5 22.5L234.3 22.5C233.9 22.5 233.5 22.8 233.5 23.2L233.5 23.2zM233.5 48.4L233.5 48.4C233.5 48.8 233.9 49.1 234.4 49.1L238.7 49.1C241.3 49.1 243.1 47.7 243.1 45.6L243.1 43.3C243.1 40.4 240.7 38.5 237.4 38.5L233.6 38.5 233.6 48.4 233.5 48.4zM285.5 18.1C285.6 17.4 286.2 16.8 287.2 16.8L295.1 16.8C296.3 16.8 297 17.4 297 18.4L297 53.3C297 54.4 296.3 54.9 295.1 54.9L291.6 54.9C290.4 54.9 289.7 54.3 289.7 53.3L289.7 25.3 282.3 53.6C282.1 54.4 281.5 55 280.5 55L276.8 55C275.9 55 275.3 54.4 275.1 53.6L267.7 25.3 267.7 53.3C267.7 54.4 267 54.9 265.8 54.9L262.4 54.9C261.2 54.9 260.5 54.3 260.5 53.3L260.5 18.4C260.5 17.3 261.2 16.8 262.4 16.8L270.2 16.8C271.2 16.8 271.8 17.4 272 18.1L278.8 44.9 285.5 18.1 285.5 18.1zM325.1 16.7C326.1 16.7 326.7 17.2 326.8 17.9L336 53C336.2 54 335.5 54.9 334.3 54.9L330 54.9C329.1 54.9 328.5 54.4 328.3 53.7L326.8 47.6C326.7 47.3 326.4 47 325.9 47L315.3 47C314.8 47 314.5 47.3 314.4 47.6L312.9 53.7C312.7 54.4 312.2 54.9 311.2 54.9L307.3 54.9C306.1 54.9 305.4 53.9 305.6 53L314.7 17.9C314.9 17.2 315.4 16.7 316.4 16.7L325.1 16.7 325.1 16.7zM315.6 41.3L315.6 41.3 325.1 41.3 320.3 22.3 315.6 41.3 315.6 41.3zM365.4 18.4C365.4 17.3 366.1 16.8 367.3 16.8L370.6 16.8C371.8 16.8 372.5 17.4 372.5 18.4L372.5 53.3C372.5 54.4 371.8 54.9 370.6 54.9L363.8 54.9C362.7 54.9 362.1 54.4 361.8 53.7L351.5 25.4 351.5 53.3C351.5 54.4 350.8 54.9 349.6 54.9L346.3 54.9C345.1 54.9 344.4 54.3 344.4 53.3L344.4 18.4C344.4 17.3 345.1 16.8 346.3 16.8L353 16.8C354.2 16.8 354.8 17.4 355 18L365.5 46.3 365.5 18.4 365.4 18.4zM399.9 16.7C405.7 16.7 409.4 19.9 409.4 24.8L409.4 46.7C409.4 51.6 405.7 54.8 399.9 54.8L384.5 54.8C383.3 54.8 382.6 54.2 382.6 53.2L382.6 18.4C382.6 17.3 383.3 16.8 384.5 16.8L399.9 16.8 399.9 16.7zM390.4 23.2L390.4 23.2 390.4 48.4C390.4 48.9 390.8 49.1 391.3 49.1L396.8 49.1C400 49.1 401.8 47.7 401.8 44.9L401.8 26.7C401.8 23.9 400.1 22.5 396.9 22.5L391.3 22.5C390.7 22.5 390.4 22.8 390.4 23.2L390.4 23.2z"/>
    <polygon fill="#C8102E" fill-rule="nonzero" points="423.8 7.1 140.3 7.2 140.3 64.5 423.8 64.5"/>
    <path fill="#FFF" fill-rule="nonzero" d="M72.8 11.9C72.8 6.2 69.8 4.6 66.6 4.6 61.1 4.6 54.1 9.3 43.1 22 43 22.1 42.1 23.1 41.9 23 41.8 22.9 41.9 22.3 42.1 22 44 18.4 47 12.2 47 7.9 47 4.5 44.3 1.9 40 1.9 35 1.9 27.3 10.6 22.4 15.6 21 17 20.4 17.7 20.3 17.6 20.2 17.5 20.9 16.3 21.3 15.5 23.1 12.5 24.5 10.7 24.5 7.8 24.5 2.4 19.7.9 15.3.9 13.3.9 13.1 2.3 15.4 2.7 16.9 3 17.6 3.5 17.6 4.8 17.6 9.3 13.4 15.4 6.8 24.2 2.4 30 .8 34.7.8 37.8.8 40.2 3.2 41.8 4.6 42.3 4.9 42.4 5.3 42.5 5.6 42.5 6.6 42.5 7.3 41.8 7.8 41.1 11.9 34.2 35.8 6.6 39.4 6.6 39.7 6.6 39.9 6.8 39.9 7.2 39.9 7.5 39.8 8 39.6 8.6 37.4 14.7 27.2 29.1 27.2 37.2 27.2 39.4 28.2 41.2 30.4 42 31.2 42.3 31.7 42.4 32.1 42.4 33.8 42.4 33.8 40.7 34.9 39.2 48 21 58.4 11 62.1 11 62.8 11 63.2 11.4 63.2 12.2 63.2 12.5 63.1 12.9 63.1 13.3 62.3 16.8 55.9 27.5 55.9 35.7 55.9 40 57.7 43.5 63.2 44.8 63.9 44.9 64.4 45 64.9 45 66.1 45 66.6 44.5 66.6 44 66.6 43.7 66.5 43.3 66.3 43 66.2 42.8 65.8 41.3 65.8 40.6 65.8 36.8 68.8 27.5 71.1 21 71.7 18.3 72.8 14 72.8 11.9M88.1 11.4C89.9 11.4 93.6 9.9 93.6 7.9 93.6 6.2 91.8 4.3 91 4.3 87 4.3 84.6 7 85.2 9.1 85.6 10.7 87.1 11.4 88.1 11.4M119.2 29.1C114 34.3 111.5 35.8 110.5 35.8 110.1 35.8 109.9 35.5 109.9 35.1 109.9 33.3 111.1 31.2 113 27.8 114 26.1 116.2 21.5 116.2 18.9 116.2 17.9 116 17.3 115.6 16.6 114.7 15 113.7 14.2 112.4 14.2 109.9 14.2 106.3 17.3 99.5 23.8 98.8 24.5 97.9 25.2 97.7 25 97.5 24.8 98 24 98.5 23.3 101.5 19.7 102.4 18.1 102.4 15.7 102.4 13.4 100.6 12.4 98.2 12.4 97.5 12.4 97.7 13.1 98 13.2 98.2 13.3 98.4 13.5 98.4 13.8 98.4 15.6 93.5 21.4 89.7 27 85.5 32.5 79.2 36.1 77.5 36.1 77.2 36.1 77.1 36 77.1 35.8 77.2 32.4 83.1 25.4 85.5 21.8 86.4 20.5 86.9 19.2 86.9 17.9 86.9 17.1 86.6 16.4 86.1 15.7 85.4 14.7 83.2 13.3 82.1 13.3 81.6 13.3 81.8 14.2 81.8 14.7 81.8 15 81.7 15.3 81.5 15.6 79 20 72.7 28.1 72.7 33.4 72.7 35.5 72.9 37.4 75.4 38.7 75.8 38.9 76.2 39 76.6 39 79.1 39 83.6 36 87.4 32.7 87.3 33.1 87.2 34 87.2 34.4 87.2 37.1 89.4 38.2 89.8 38.2 90.3 38.2 90.6 37.7 90.8 37.4 92.5 33.5 105.3 20.1 108 20.1 108.3 20.1 108.5 20.3 108.5 20.7 108.5 21.6 107.9 23 106.2 25.7 104.5 28.4 103.7 31.4 103.7 33.3 103.7 36.1 104.9 37.8 106.9 38.7 107.4 39 107.9 39 108.7 39 111.7 39 116.2 35.8 120.5 31 121.8 30.1 120.4 28 119.2 29.1" transform="translate(10 13)"/>
    <path fill="#FFF" fill-rule="nonzero" d="M160.6 16.7C161.8 16.7 162.5 17.3 162.5 18.3L162.5 32.6 165 32.6C166.2 32.6 167.2 32 167.5 31L172.5 17.7C172.7 17.1 173.2 16.6 174.4 16.6L178.6 16.6C180 16.6 180.7 17.7 180.3 18.8L175.1 32.1C174.6 33.5 173.7 34.5 172.4 35.4 173.6 36.1 174.6 37.3 175.1 38.7L180.5 52.5C180.9 53.8 180.2 54.7 178.7 54.7L174.6 54.7C173.5 54.7 172.9 54.2 172.7 53.6L167.6 39.8C167.3 38.9 166.2 38.3 165.1 38.3L162.6 38.3 162.6 53.1C162.6 54.2 161.9 54.7 160.7 54.7L156.8 54.7C155.6 54.7 154.9 54.1 154.9 53.1L154.9 18.4C154.9 17.3 155.6 16.8 156.8 16.8L160.6 16.8 160.6 16.7zM214.9 13.6C216.3 13.6 216.6 14.7 216.3 15.4L214 19.6C215.3 21 216 22.8 216 24.9L216 46.8C216 51.7 212.3 54.9 206.4 54.9L198.6 54.9C197.3 54.9 196.1 54.7 195 54.4L193.4 57.4C193.1 57.8 192.7 58 192.1 58L189.7 58C188.4 58 188 56.9 188.4 56.2L190.8 51.8C189.7 50.5 189.1 48.8 189.1 46.8L189.1 24.9C189.1 20 192.9 16.8 198.6 16.8L206.4 16.8C207.6 16.8 208.6 17 209.6 17.2L211.2 14.3C211.4 13.9 211.9 13.7 212.5 13.7L214.9 13.7 214.9 13.6zM196.8 40.8L196.8 40.8 206.3 23.1C205.6 22.7 204.6 22.5 203.4 22.5L201.5 22.5C198.5 22.5 196.8 23.9 196.8 26.6L196.8 40.8 196.8 40.8zM208.3 30.2L208.3 30.2 198.4 48.4C199.1 48.9 200.3 49.2 201.6 49.2L203.5 49.2C206.5 49.2 208.3 47.8 208.3 45.2L208.3 30.2zM241.5 16.7C246.8 16.7 250.6 19.9 250.6 24.5L250.6 26.5C250.6 30.9 247.9 34.1 244 35.6 247.9 37.1 250.6 40.4 250.6 44.7L250.6 47.2C250.6 51.8 246.9 55 241.5 55L227.5 55C226.3 55 225.6 54.4 225.6 53.4L225.6 18.4C225.6 17.3 226.3 16.8 227.5 16.8L241.5 16.8 241.5 16.7zM233.4 23.2L233.4 23.2 233.4 32.7 237.2 32.7C240.5 32.7 242.9 30.8 242.9 27.9L242.9 26.2C242.9 23.9 241.2 22.5 238.4 22.5L234.2 22.5C233.7 22.5 233.4 22.8 233.4 23.2M233.4 48.4L233.4 48.4C233.4 48.8 233.8 49.1 234.3 49.1L238.6 49.1C241.2 49.1 243 47.7 243 45.6L243 43.3C243 40.4 240.6 38.5 237.3 38.5L233.5 38.5 233.5 48.4 233.4 48.4zM285.3 18.1C285.4 17.4 286 16.8 287 16.8L294.9 16.8C296.1 16.8 296.8 17.4 296.8 18.4L296.8 53.3C296.8 54.4 296.1 54.9 294.9 54.9L291.4 54.9C290.2 54.9 289.5 54.3 289.5 53.3L289.5 25.3 282.1 53.6C281.9 54.4 281.3 55 280.3 55L276.6 55C275.7 55 275.1 54.4 274.9 53.6L267.5 25.3 267.5 53.3C267.5 54.4 266.8 54.9 265.6 54.9L262.2 54.9C261 54.9 260.3 54.3 260.3 53.3L260.3 18.4C260.3 17.3 261 16.8 262.2 16.8L270 16.8C271 16.8 271.6 17.4 271.8 18.1L278.6 44.9 285.3 18.1zM324.9 16.7C325.9 16.7 326.5 17.2 326.6 17.9L335.8 53C336 54 335.3 54.9 334.1 54.9L329.8 54.9C328.9 54.9 328.2 54.4 328.1 53.7L326.6 47.6C326.5 47.3 326.2 47 325.7 47L315 47C314.5 47 314.2 47.3 314.1 47.6L312.5 53.7C312.3 54.4 311.8 54.9 310.8 54.9L307 54.9C305.8 54.9 305.1 53.9 305.3 53L314.4 17.9C314.6 17.2 315.1 16.7 316.1 16.7L324.9 16.7zM315.5 41.3L315.5 41.3 325 41.3 320.2 22.3 315.5 41.3zM365.3 18.4C365.3 17.3 366 16.8 367.2 16.8L370.5 16.8C371.7 16.8 372.4 17.4 372.4 18.4L372.4 53.3C372.4 54.4 371.7 54.9 370.5 54.9L363.7 54.9C362.6 54.9 362 54.4 361.7 53.7L351.3 25.4 351.3 53.3C351.3 54.4 350.6 54.9 349.4 54.9L346.1 54.9C344.9 54.9 344.2 54.3 344.2 53.3L344.2 18.4C344.2 17.3 344.9 16.8 346.1 16.8L352.8 16.8C354 16.8 354.6 17.4 354.8 18L365.3 46.3 365.3 18.4zM399.8 16.7C405.6 16.7 409.3 19.9 409.3 24.8L409.3 46.8C409.3 51.7 405.6 55 399.8 55L384.4 55C383.2 55 382.5 54.4 382.5 53.4L382.5 18.4C382.5 17.3 383.2 16.8 384.4 16.8L399.8 16.8 399.8 16.7zM390.3 23.2L390.3 23.2 390.3 48.4C390.3 48.9 390.7 49.1 391.2 49.1L396.7 49.1C399.9 49.1 401.7 47.7 401.7 44.9L401.7 26.7C401.7 23.9 400 22.5 396.8 22.5L391.2 22.5C390.7 22.5 390.3 22.8 390.3 23.2"/>
    <rect width="430.6" height="70.9" y=".4"/>
  </g>
</svg>