<svg width="177" height="32" viewBox="0 0 177 32" fill="none" xmlns="http://www.w3.org/2000/svg">
<g clip-path="url(#clip0_111_1879)">
<path d="M139.212 3.04297H0V28.943H139.212V3.04297Z" fill="#ED1C24"/>
<path d="M57.2115 17.5639C57.9924 17.5639 58.629 18.2291 58.629 19.0358C58.629 19.8425 57.9924 20.5006 57.2115 20.5006H42.9824C42.9824 22.2839 44.3862 23.6992 46.1187 23.6992L57.7048 23.7063C60.1972 23.7063 62.2241 21.6187 62.2241 19.0429C62.2241 16.467 60.2041 14.3795 57.7048 14.3795L48.0156 14.3724C47.2347 14.3724 46.5981 13.7142 46.5981 12.9076C46.5981 12.1008 47.2347 11.4427 48.0156 11.4427H61.6355C61.6355 9.65235 60.2313 8.2229 58.499 8.2229L47.5224 8.22997C45.023 8.22997 43.0029 10.3175 43.0029 12.8934C43.0029 15.4692 45.023 17.5568 47.5224 17.5568L57.2115 17.5639Z" fill="white"/>
<path d="M72.0575 22.0292C72.0575 23.0482 71.2563 23.8762 70.2698 23.8762C69.2838 23.8762 68.4827 23.0482 68.4827 22.0292V11.7117C68.4827 9.7939 69.9891 8.24414 71.8381 8.24414H83.2803C85.9853 8.24414 88.1767 10.5086 88.1767 13.2968C88.1767 16.085 85.9853 18.3494 83.2803 18.3494L76.4123 18.3423C74.5361 18.3423 73.0159 16.8138 73.0159 14.8748H82.7534C83.6025 14.8748 84.287 14.1672 84.287 13.2897C84.287 12.4122 83.6025 11.6975 82.7534 11.6975H72.0575V22.0292Z" fill="white"/>
<path d="M134.206 17.7904L136.528 20.8969C137.13 21.7037 136.986 22.8642 136.206 23.487C135.425 24.1097 134.302 23.9611 133.699 23.1544L130.084 18.3494L125.092 18.3423C123.216 18.3423 121.702 16.8138 121.702 14.8748H131.433C132.282 14.8748 132.967 14.1672 132.967 13.2897C132.967 12.4122 132.282 11.6975 131.433 11.6975H120.737V22.0292C120.737 23.0482 119.936 23.8762 118.95 23.8762C117.964 23.8762 117.163 23.0482 117.163 22.0292V11.7117C117.163 9.7939 118.669 8.24414 120.518 8.24414H131.96C134.665 8.24414 136.856 10.5086 136.856 13.2968C136.856 15.2499 135.781 16.9483 134.206 17.7904Z" fill="white"/>
<path d="M101.118 20.529H107.055L108.849 23.119C109.425 23.947 110.541 24.138 111.342 23.5506C112.143 22.9563 112.335 21.8028 111.76 20.9748L104.042 9.83639C103.406 8.87396 102.33 8.23706 101.118 8.23706C99.9066 8.23706 98.8316 8.86689 98.1945 9.83639L90.4774 20.9748C89.9021 21.8028 90.087 22.9563 90.8951 23.5506C91.6962 24.1451 92.8192 23.954 93.3875 23.119L95.1816 20.529H101.118V17.2455H97.4413L100.824 12.3415C100.886 12.2495 100.995 12.1858 101.118 12.1858C101.242 12.1858 101.344 12.2495 101.413 12.3415L104.796 17.2455H101.118V20.529Z" fill="white"/>
<path d="M168.588 16.276C168.588 10.3317 163.925 5.51969 158.166 5.51969C152.414 5.51969 147.744 10.3388 147.744 16.276C147.744 25.4825 156.892 27.6055 156.892 23.4657V21.4418L149.894 21.4277C155.721 14.245 158.166 5.80272 158.166 5.80272C158.166 5.80272 160.617 14.245 166.431 21.4206L159.433 21.4348V23.4657C159.433 27.6055 168.574 25.617 168.574 16.4104L168.588 16.276ZM171.361 16.3892C171.361 23.9186 165.458 29.502 158.166 29.502C150.873 29.502 144.964 23.8054 144.964 16.276C144.964 8.74658 150.873 2.64661 158.166 2.64661C165.458 2.64661 171.368 8.74658 171.368 16.276L171.361 16.3892Z" fill="#00A651"/>
</g>
<defs>
<clipPath id="clip0_111_1879">
<rect width="176.552" height="32" fill="white"/>
</clipPath>
</defs>
</svg>
